<svg width="296" height="44" viewBox="0 0 296 44" fill="none" xmlns="http://www.w3.org/2000/svg">
<rect x="0.5" y="0.5" width="295" height="43" rx="7.5" stroke="#808080"/>
<path d="M58.4996 26.5375C57.8888 25.9221 56.4096 25.0241 55.692 24.6622C54.7574 24.1914 54.6805 24.153 53.9459 24.6987C53.4559 25.0629 53.1302 25.3883 52.5567 25.266C51.9833 25.1437 50.7372 24.4541 49.6461 23.3665C48.555 22.2788 47.8254 20.9966 47.7027 20.425C47.58 19.8535 47.9108 19.5316 48.2715 19.0405C48.78 18.3482 48.7415 18.2328 48.3069 17.2983C47.9681 16.5714 47.0439 15.106 46.4262 14.4984C45.7655 13.8457 45.7655 13.9611 45.3397 14.138C44.9931 14.2838 44.6606 14.4611 44.3463 14.6676C43.731 15.0764 43.3894 15.416 43.1506 15.9264C42.9118 16.4368 42.8045 17.6332 44.0379 19.8739C45.2713 22.1146 46.1366 23.2603 47.9277 25.0464C49.7188 26.8325 51.096 27.7928 53.1094 28.922C55.6001 30.3169 56.5554 30.045 57.0673 29.8066C57.5792 29.5681 57.9203 29.2297 58.3299 28.6143C58.537 28.3006 58.7146 27.9684 58.8607 27.622C59.038 27.1978 59.1534 27.1978 58.4996 26.5375Z" stroke="#808080" stroke-width="1.5" stroke-miterlimit="10"/>
<path d="M72.1237 16.96V28H70.5237V16.96H72.1237ZM77.1797 16.96V18.224H71.9957V16.96H77.1797ZM78.6037 16.96V28H77.0037V16.96H78.6037ZM84.5689 20C85.4863 20 86.2169 20.1333 86.7609 20.4C87.3049 20.6667 87.6996 21.104 87.9449 21.712C88.1903 22.3093 88.3129 23.104 88.3129 24.096C88.3129 25.0987 88.1903 25.904 87.9449 26.512C87.6996 27.1093 87.3049 27.5413 86.7609 27.808C86.2169 28.0747 85.4863 28.208 84.5689 28.208C83.6516 28.208 82.9156 28.0747 82.3609 27.808C81.8169 27.5413 81.4223 27.1093 81.1769 26.512C80.9316 25.904 80.8089 25.0987 80.8089 24.096C80.8089 23.104 80.9316 22.3093 81.1769 21.712C81.4223 21.104 81.8169 20.6667 82.3609 20.4C82.9156 20.1333 83.6516 20 84.5689 20ZM84.5689 21.248C84.0356 21.248 83.6089 21.3333 83.2889 21.504C82.9796 21.6747 82.7556 21.968 82.6169 22.384C82.4889 22.7893 82.4249 23.36 82.4249 24.096C82.4249 24.832 82.4889 25.408 82.6169 25.824C82.7556 26.24 82.9796 26.5333 83.2889 26.704C83.6089 26.864 84.0356 26.944 84.5689 26.944C85.1023 26.944 85.5236 26.864 85.8329 26.704C86.1423 26.5333 86.3609 26.24 86.4889 25.824C86.6169 25.408 86.6809 24.832 86.6809 24.096C86.6809 23.36 86.6169 22.7893 86.4889 22.384C86.3609 21.968 86.1423 21.6747 85.8329 21.504C85.5236 21.3333 85.1023 21.248 84.5689 21.248ZM96.6871 20.192V21.36H93.7751C93.4551 21.36 93.2204 21.4293 93.0711 21.568C92.9324 21.7067 92.8417 21.952 92.7991 22.304C92.7457 22.7627 92.6817 23.2373 92.6071 23.728C92.5431 24.208 92.4684 24.672 92.3831 25.12C92.3084 25.5573 92.2071 25.952 92.0791 26.304C91.9511 26.7093 91.7644 27.0453 91.5191 27.312C91.2844 27.5787 90.9964 27.776 90.6551 27.904C90.3137 28.0213 89.9244 28.08 89.4871 28.08L89.3271 26.912C89.6044 26.8373 89.8284 26.7573 89.9991 26.672C90.1804 26.5867 90.3191 26.48 90.4151 26.352C90.5217 26.2133 90.6124 26.048 90.6871 25.856C90.7831 25.6213 90.8631 25.344 90.9271 25.024C91.0017 24.704 91.0604 24.3733 91.1031 24.032C91.1564 23.68 91.1991 23.3333 91.2311 22.992C91.2737 22.64 91.3111 22.32 91.3431 22.032C91.4177 21.4347 91.6151 20.9813 91.9351 20.672C92.2551 20.352 92.7404 20.192 93.3911 20.192H96.6871ZM96.8951 20.192V28H95.3431V20.192H96.8951ZM106.453 20.192L103.397 28.368C103.301 28.6453 103.178 28.928 103.029 29.216C102.879 29.5147 102.698 29.7973 102.485 30.064C102.282 30.3307 102.042 30.56 101.765 30.752C101.359 31.0293 100.906 31.1947 100.405 31.248C99.9141 31.3013 99.3915 31.2907 98.8368 31.216L98.9648 30.16C99.3275 30.1707 99.6741 30.1547 100.005 30.112C100.335 30.0693 100.629 29.968 100.885 29.808C101.109 29.648 101.311 29.4293 101.493 29.152C101.674 28.8853 101.829 28.592 101.957 28.272L102.357 27.328C102.442 27.104 102.527 26.8587 102.613 26.592C102.698 26.3147 102.778 26.0747 102.853 25.872L104.789 20.192H106.453ZM100.069 20.192L102.037 25.872C102.09 26.032 102.138 26.1973 102.181 26.368C102.223 26.528 102.266 26.6933 102.309 26.864H102.693L102.165 28H101.749C101.61 28 101.493 27.968 101.397 27.904C101.311 27.8293 101.242 27.728 101.189 27.6L98.4208 20.192H100.069ZM109.126 20.192V23.104C109.126 23.4667 109.206 23.7227 109.366 23.872C109.526 24.0213 109.787 24.096 110.15 24.096C110.576 24.096 110.992 24.0587 111.398 23.984C111.803 23.8987 112.262 23.744 112.774 23.52L112.918 24.656C112.363 24.8907 111.787 25.0667 111.19 25.184C110.592 25.2907 110.07 25.344 109.622 25.344C108.95 25.344 108.443 25.2 108.102 24.912C107.771 24.624 107.606 24.1867 107.606 23.6V20.192H109.126ZM114.15 20.192V28H112.598V20.192H114.15ZM123.607 20.192V28H122.215V23.024C122.215 22.8427 122.22 22.6667 122.231 22.496C122.241 22.3253 122.257 22.1387 122.279 21.936H122.231C122.167 22.096 122.081 22.2667 121.975 22.448C121.879 22.6187 121.783 22.768 121.687 22.896L117.895 28H116.599V20.192H117.991V25.184C117.991 25.3547 117.985 25.5253 117.975 25.696C117.975 25.8667 117.964 26.0533 117.943 26.256H117.975C118.06 26.0853 118.151 25.92 118.247 25.76C118.343 25.5893 118.439 25.4453 118.535 25.328L122.327 20.192H123.607ZM129.572 20.192V28H128.02V20.192H129.572ZM132.356 20.192V21.44H125.236V20.192H132.356ZM137.19 23.168C138.012 23.168 138.657 23.2427 139.126 23.392C139.596 23.5413 139.926 23.7973 140.118 24.16C140.321 24.5227 140.422 25.0133 140.422 25.632C140.422 26.272 140.321 26.7733 140.118 27.136C139.916 27.4987 139.59 27.7493 139.142 27.888C138.705 28.0267 138.134 28.096 137.43 28.096C136.908 28.096 136.454 28.0907 136.07 28.08C135.686 28.08 135.334 28.0693 135.014 28.048C134.694 28.0373 134.358 28.0213 134.006 28L134.182 26.88C134.385 26.8907 134.753 26.9013 135.286 26.912C135.83 26.9227 136.465 26.928 137.19 26.928C137.596 26.928 137.921 26.8907 138.166 26.816C138.412 26.7413 138.582 26.608 138.678 26.416C138.785 26.224 138.838 25.9413 138.838 25.568C138.838 25.2373 138.79 24.976 138.694 24.784C138.598 24.592 138.433 24.4587 138.198 24.384C137.964 24.2987 137.628 24.256 137.19 24.256H134.166V23.168H137.19ZM135.462 20.192V28H133.958V20.192H135.462ZM152.538 20.192C152.356 20.672 152.191 21.104 152.042 21.488C151.892 21.872 151.743 22.208 151.594 22.496C151.444 22.784 151.274 23.024 151.082 23.216C150.9 23.408 150.687 23.5627 150.442 23.68C150.207 23.7973 149.919 23.872 149.578 23.904V23.968C149.94 24 150.244 24.0693 150.49 24.176C150.746 24.2827 150.97 24.4373 151.162 24.64C151.364 24.8427 151.546 25.0987 151.706 25.408C151.866 25.7067 152.031 26.0747 152.202 26.512C152.372 26.9387 152.559 27.4347 152.762 28H151.146C150.954 27.4773 150.778 27.024 150.618 26.64C150.468 26.2453 150.319 25.9147 150.17 25.648C150.02 25.3707 149.86 25.152 149.69 24.992C149.519 24.8213 149.316 24.704 149.082 24.64C148.858 24.5653 148.591 24.528 148.282 24.528V23.36C148.655 23.36 148.97 23.296 149.226 23.168C149.482 23.0293 149.7 22.8267 149.882 22.56C150.074 22.2933 150.25 21.968 150.41 21.584C150.57 21.1893 150.746 20.7253 150.938 20.192H152.538ZM147.37 20.192V22.448C147.37 22.6933 147.348 22.944 147.306 23.2C147.274 23.4453 147.22 23.68 147.146 23.904C147.21 24.1387 147.263 24.3733 147.306 24.608C147.348 24.8427 147.37 25.0613 147.37 25.264V28H145.818V20.192H147.37ZM148.81 23.36V24.528H146.922V23.36H148.81ZM157.803 20C158.721 20 159.451 20.1333 159.995 20.4C160.539 20.6667 160.934 21.104 161.179 21.712C161.425 22.3093 161.547 23.104 161.547 24.096C161.547 25.0987 161.425 25.904 161.179 26.512C160.934 27.1093 160.539 27.5413 159.995 27.808C159.451 28.0747 158.721 28.208 157.803 28.208C156.886 28.208 156.15 28.0747 155.595 27.808C155.051 27.5413 154.657 27.1093 154.411 26.512C154.166 25.904 154.043 25.0987 154.043 24.096C154.043 23.104 154.166 22.3093 154.411 21.712C154.657 21.104 155.051 20.6667 155.595 20.4C156.15 20.1333 156.886 20 157.803 20ZM157.803 21.248C157.27 21.248 156.843 21.3333 156.523 21.504C156.214 21.6747 155.99 21.968 155.851 22.384C155.723 22.7893 155.659 23.36 155.659 24.096C155.659 24.832 155.723 25.408 155.851 25.824C155.99 26.24 156.214 26.5333 156.523 26.704C156.843 26.864 157.27 26.944 157.803 26.944C158.337 26.944 158.758 26.864 159.067 26.704C159.377 26.5333 159.595 26.24 159.723 25.824C159.851 25.408 159.915 24.832 159.915 24.096C159.915 23.36 159.851 22.7893 159.723 22.384C159.595 21.968 159.377 21.6747 159.067 21.504C158.758 21.3333 158.337 21.248 157.803 21.248ZM165.134 20.192V28H163.614V20.192H165.134ZM169.182 23.28V24.432H165.038V23.28H169.182ZM170.558 20.192V28H169.038V20.192H170.558ZM176.381 20C176.627 20 176.899 20.0107 177.197 20.032C177.496 20.0533 177.8 20.0907 178.109 20.144C178.419 20.1973 178.707 20.2773 178.973 20.384L178.781 21.376C178.408 21.344 178.024 21.3227 177.629 21.312C177.245 21.2907 176.915 21.28 176.637 21.28C176.051 21.28 175.581 21.3653 175.229 21.536C174.877 21.696 174.621 21.9787 174.461 22.384C174.312 22.7893 174.237 23.3547 174.237 24.08C174.237 24.8053 174.312 25.376 174.461 25.792C174.621 26.208 174.877 26.496 175.229 26.656C175.581 26.816 176.051 26.896 176.637 26.896C176.797 26.896 177.005 26.8907 177.261 26.88C177.528 26.8693 177.811 26.8533 178.109 26.832C178.408 26.8107 178.691 26.7787 178.957 26.736L179.101 27.76C178.717 27.9093 178.285 28.016 177.805 28.08C177.325 28.1547 176.845 28.192 176.365 28.192C175.459 28.192 174.728 28.0587 174.173 27.792C173.629 27.5253 173.235 27.0933 172.989 26.496C172.744 25.8987 172.621 25.0933 172.621 24.08C172.621 23.0773 172.744 22.2773 172.989 21.68C173.235 21.0827 173.629 20.656 174.173 20.4C174.728 20.1333 175.464 20 176.381 20ZM188.015 20.192L184.959 28.368C184.863 28.6453 184.741 28.928 184.591 29.216C184.442 29.5147 184.261 29.7973 184.047 30.064C183.845 30.3307 183.605 30.56 183.327 30.752C182.922 31.0293 182.469 31.1947 181.967 31.248C181.477 31.3013 180.954 31.2907 180.399 31.216L180.527 30.16C180.89 30.1707 181.237 30.1547 181.567 30.112C181.898 30.0693 182.191 29.968 182.447 29.808C182.671 29.648 182.874 29.4293 183.055 29.152C183.237 28.8853 183.391 28.592 183.519 28.272L183.919 27.328C184.005 27.104 184.09 26.8587 184.175 26.592C184.261 26.3147 184.341 26.0747 184.415 25.872L186.351 20.192H188.015ZM181.631 20.192L183.599 25.872C183.653 26.032 183.701 26.1973 183.743 26.368C183.786 26.528 183.829 26.6933 183.871 26.864H184.255L183.727 28H183.311C183.173 28 183.055 27.968 182.959 27.904C182.874 27.8293 182.805 27.728 182.751 27.6L179.983 20.192H181.631ZM195.421 20.192V21.36H192.509C192.189 21.36 191.955 21.4293 191.805 21.568C191.667 21.7067 191.576 21.952 191.533 22.304C191.48 22.7627 191.416 23.2373 191.341 23.728C191.277 24.208 191.203 24.672 191.117 25.12C191.043 25.5573 190.941 25.952 190.813 26.304C190.685 26.7093 190.499 27.0453 190.253 27.312C190.019 27.5787 189.731 27.776 189.389 27.904C189.048 28.0213 188.659 28.08 188.221 28.08L188.061 26.912C188.339 26.8373 188.563 26.7573 188.733 26.672C188.915 26.5867 189.053 26.48 189.149 26.352C189.256 26.2133 189.347 26.048 189.421 25.856C189.517 25.6213 189.597 25.344 189.661 25.024C189.736 24.704 189.795 24.3733 189.837 24.032C189.891 23.68 189.933 23.3333 189.965 22.992C190.008 22.64 190.045 22.32 190.077 22.032C190.152 21.4347 190.349 20.9813 190.669 20.672C190.989 20.352 191.475 20.192 192.125 20.192H195.421ZM195.629 20.192V28H194.077V20.192H195.629ZM201.315 23.168C202.137 23.168 202.782 23.2427 203.251 23.392C203.721 23.5413 204.051 23.7973 204.243 24.16C204.446 24.5227 204.547 25.0133 204.547 25.632C204.547 26.272 204.446 26.7733 204.243 27.136C204.041 27.4987 203.715 27.7493 203.267 27.888C202.83 28.0267 202.259 28.096 201.555 28.096C201.033 28.096 200.579 28.0907 200.195 28.08C199.811 28.08 199.459 28.0693 199.139 28.048C198.819 28.0373 198.483 28.0213 198.131 28L198.307 26.88C198.51 26.8907 198.878 26.9013 199.411 26.912C199.955 26.9227 200.59 26.928 201.315 26.928C201.721 26.928 202.046 26.8907 202.291 26.816C202.537 26.7413 202.707 26.608 202.803 26.416C202.91 26.224 202.963 25.9413 202.963 25.568C202.963 25.2373 202.915 24.976 202.819 24.784C202.723 24.592 202.558 24.4587 202.323 24.384C202.089 24.2987 201.753 24.256 201.315 24.256H198.291V23.168H201.315ZM199.587 20.192V28H198.083V20.192H199.587ZM208.884 20.192V28H207.332V20.192H208.884ZM211.668 20.192V21.44H204.548V20.192H211.668ZM217.047 20C217.644 20 218.145 20.08 218.551 20.24C218.956 20.3893 219.26 20.6507 219.463 21.024C219.676 21.3973 219.783 21.9093 219.783 22.56V28H218.567L218.327 26.304L218.247 26.112V22.56C218.236 22.1013 218.124 21.7707 217.911 21.568C217.708 21.3653 217.308 21.264 216.711 21.264C216.295 21.264 215.777 21.2853 215.159 21.328C214.551 21.3707 213.948 21.4133 213.351 21.456L213.207 20.352C213.569 20.288 213.975 20.2293 214.423 20.176C214.871 20.1227 215.324 20.08 215.783 20.048C216.241 20.016 216.663 20 217.047 20ZM219.079 23.184L219.063 24.272L215.399 24.288C215.036 24.2987 214.78 24.3947 214.631 24.576C214.481 24.7467 214.407 24.9867 214.407 25.296V25.776C214.407 26.16 214.503 26.4427 214.695 26.624C214.887 26.7947 215.18 26.88 215.575 26.88C215.873 26.88 216.204 26.8267 216.567 26.72C216.94 26.6027 217.313 26.432 217.687 26.208C218.06 25.9733 218.396 25.68 218.695 25.328V26.336C218.599 26.4853 218.444 26.6667 218.231 26.88C218.017 27.0827 217.756 27.28 217.447 27.472C217.148 27.664 216.812 27.824 216.439 27.952C216.065 28.08 215.66 28.144 215.223 28.144C214.753 28.144 214.337 28.064 213.975 27.904C213.623 27.7333 213.345 27.488 213.143 27.168C212.951 26.8373 212.855 26.4373 212.855 25.968V25.12C212.855 24.512 213.047 24.0373 213.431 23.696C213.825 23.3547 214.369 23.184 215.063 23.184H219.079ZM223.681 20.192V28H222.177V20.192H223.681ZM229.969 26.816V28H223.569L223.553 26.816H229.969ZM228.897 20.192L228.881 28H227.361V20.192H228.897ZM229.969 27.92V30.288H228.961L228.801 27.92H229.969ZM238.763 20.192V28H237.371V23.024C237.371 22.8427 237.376 22.6667 237.387 22.496C237.398 22.3253 237.414 22.1387 237.435 21.936H237.387C237.323 22.096 237.238 22.2667 237.131 22.448C237.035 22.6187 236.939 22.768 236.843 22.896L233.051 28H231.755V20.192H233.147V25.184C233.147 25.3547 233.142 25.5253 233.131 25.696C233.131 25.8667 233.12 26.0533 233.099 26.256H233.131C233.216 26.0853 233.307 25.92 233.403 25.76C233.499 25.5893 233.595 25.4453 233.691 25.328L237.483 20.192H238.763ZM248.216 20C248.91 20 249.491 20.064 249.96 20.192C250.44 20.32 250.824 20.5387 251.112 20.848C251.411 21.1573 251.63 21.5787 251.768 22.112C251.907 22.6347 251.976 23.296 251.976 24.096C251.976 25.1307 251.854 25.9467 251.608 26.544C251.363 27.1307 250.968 27.5467 250.424 27.792C249.88 28.0267 249.144 28.144 248.216 28.144C247.342 28.144 246.643 28.0267 246.12 27.792C245.598 27.5467 245.219 27.1307 244.984 26.544C244.76 25.9467 244.648 25.1307 244.648 24.096C244.648 23.296 244.712 22.6347 244.84 22.112C244.968 21.5787 245.171 21.1573 245.448 20.848C245.726 20.5387 246.094 20.32 246.552 20.192C247.011 20.064 247.566 20 248.216 20ZM242.76 20.192V28H241.224V20.192H242.76ZM245.336 23.392V24.56H242.648V23.392H245.336ZM248.2 21.264C247.678 21.264 247.262 21.3493 246.952 21.52C246.654 21.6907 246.44 21.9787 246.312 22.384C246.195 22.7893 246.136 23.3493 246.136 24.064C246.136 24.7787 246.195 25.344 246.312 25.76C246.44 26.1653 246.654 26.4533 246.952 26.624C247.262 26.784 247.678 26.864 248.2 26.864C248.744 26.864 249.176 26.784 249.496 26.624C249.816 26.4533 250.04 26.1653 250.168 25.76C250.307 25.344 250.376 24.7787 250.376 24.064C250.376 23.3493 250.307 22.7893 250.168 22.384C250.04 21.9787 249.816 21.6907 249.496 21.52C249.176 21.3493 248.744 21.264 248.2 21.264Z" fill="#808080"/>
</svg>
