<svg width="19" height="16" viewBox="0 0 19 16" fill="none" xmlns="http://www.w3.org/2000/svg">
<path d="M6.64257 15.1421C6.99759 15.1421 7.28539 14.8543 7.28539 14.4993C7.28539 14.1442 6.99759 13.8564 6.64257 13.8564C6.28755 13.8564 5.99976 14.1442 5.99976 14.4993C5.99976 14.8543 6.28755 15.1421 6.64257 15.1421Z" stroke="#808080" stroke-width="1.5" stroke-linecap="round" stroke-linejoin="round"/>
<path d="M15.6421 15.1421C15.9971 15.1421 16.2849 14.8543 16.2849 14.4993C16.2849 14.1442 15.9971 13.8564 15.6421 13.8564C15.2871 13.8564 14.9993 14.1442 14.9993 14.4993C14.9993 14.8543 15.2871 15.1421 15.6421 15.1421Z" stroke="#808080" stroke-width="1.5" stroke-linecap="round" stroke-linejoin="round"/>
<path d="M1.5 1H4L5.5254 9.38971M16.25 12H6L5.5254 9.38971M5.5254 9.38971H16.25L17.5 3H6" stroke="#808080" stroke-width="1.5" stroke-linecap="round" stroke-linejoin="round"/>
</svg>
