<svg width="32" height="32" viewBox="0 0 32 32" fill="none" xmlns="http://www.w3.org/2000/svg">
<path d="M27.4712 15.4685C27.4733 15.4685 27.4749 15.4685 27.477 15.4685C27.6232 15.4685 27.7625 15.4072 27.8616 15.2998C27.9622 15.1908 28.0119 15.0447 27.9988 14.8969C27.4728 9.1111 22.892 4.52877 17.1057 4.00169C16.959 3.99016 16.8113 4.03784 16.7023 4.13896C16.5933 4.23955 16.5325 4.38154 16.5341 4.52981C16.6253 12.2191 17.6396 15.3611 27.4712 15.4685ZM27.4712 16.5311C17.6396 16.6385 16.6258 19.7805 16.5346 27.4698C16.533 27.618 16.5938 27.76 16.7028 27.8606C16.8003 27.9502 16.9276 28 17.0586 28C17.0743 28 17.0905 27.9995 17.1062 27.9979C22.8926 27.4708 27.4733 22.889 27.9988 17.1027C28.0119 16.9549 27.9627 16.8088 27.8616 16.6998C27.7604 16.5908 27.6195 16.5368 27.4712 16.5311ZM14.8596 4.00431C9.0916 4.54658 4.52551 9.12787 4.0021 14.898C3.989 15.0457 4.03825 15.1919 4.13937 15.3009C4.23839 15.4083 4.37828 15.4691 4.52394 15.4691C4.52603 15.4691 4.52813 15.4691 4.53022 15.4691C14.3294 15.3564 15.3411 12.2159 15.4333 4.53191C15.4349 4.38364 15.3736 4.24113 15.2646 4.14053C15.1546 4.03994 15.0073 3.99069 14.8596 4.00431ZM4.5297 16.5305C4.36675 16.5122 4.23891 16.5897 4.13884 16.6987C4.03825 16.8077 3.98847 16.9539 4.00157 17.1016C4.52498 22.8717 9.0916 27.453 14.8596 27.9953C14.8758 27.9969 14.8926 27.9974 14.9088 27.9974C15.0398 27.9974 15.1666 27.9481 15.2641 27.8585C15.3731 27.7579 15.4344 27.6154 15.4328 27.4672C15.3406 19.7837 14.3294 16.6432 4.5297 16.5305Z" fill="white"/>
</svg>
