<svg width="32" height="32" viewBox="0 0 32 32" fill="none" xmlns="http://www.w3.org/2000/svg">
<path d="M15.9999 4C12.6862 4 9.99968 6.68648 9.99968 10.0003C9.99968 13.314 12.6862 16.0005 15.9999 16.0005C19.3137 16.0005 22.0002 13.314 22.0002 10.0003C22.0002 6.68648 19.3137 4 15.9999 4ZM15.9999 7.78959C17.2207 7.78959 18.2106 8.77894 18.2106 10.0003C18.2106 11.221 17.2207 12.2109 15.9999 12.2109C14.7792 12.2109 13.7893 11.2216 13.7893 10.0003C13.7893 8.77948 14.7786 7.78959 15.9999 7.78959ZM21.0105 16.0261C20.5836 16.0057 20.1589 16.1114 19.7842 16.3372C17.5205 17.7003 14.4789 17.7003 12.2157 16.3372C11.1847 15.7159 9.84164 16.0499 9.22088 17.0808C8.92032 17.5805 8.83139 18.1665 8.97158 18.7322C9.11231 19.2978 9.46486 19.7756 9.96452 20.0756C10.7615 20.5557 11.614 20.9369 12.5108 21.2145L9.45953 24.3681C9.07278 24.8039 8.87755 25.3639 8.91192 25.9459C8.94628 26.528 9.20481 27.0608 9.64064 27.4481C10.0574 27.8185 10.5783 28 11.0949 28C11.6927 28 12.2852 27.757 12.7058 27.2841L15.9999 23.8791L19.2803 27.2659C19.6937 27.7318 20.2884 27.9979 20.9114 27.9979C21.4454 27.9979 21.9599 27.8022 22.3603 27.4471C23.2593 26.6479 23.3415 25.2664 22.5265 24.35L19.4891 21.2145C20.3859 20.9363 21.2395 20.5546 22.0364 20.0746C22.5355 19.774 22.8881 19.2979 23.0283 18.7322C23.1685 18.1665 23.0796 17.5799 22.779 17.0808C22.4785 16.5817 22.0023 16.2291 21.4366 16.089C21.2953 16.0538 21.1528 16.0329 21.0105 16.0261Z" fill="white"/>
</svg>
