<svg width="24" height="16" viewBox="0 0 24 16" fill="none" xmlns="http://www.w3.org/2000/svg">
<path fill-rule="evenodd" clip-rule="evenodd" d="M23.435 1.80005C23.613 1.23605 23.435 0.826049 22.6475 0.826049H20.029C19.3685 0.826049 19.0635 1.18505 18.8855 1.56905C18.8855 1.56905 17.5385 4.84905 15.6575 6.97556C15.0475 7.59056 14.768 7.79556 14.4375 7.79556C14.2595 7.79556 14.0305 7.59056 14.0305 7.02706V1.77355C14.0305 1.10755 13.8275 0.800049 13.268 0.800049H9.15001C8.74301 0.800049 8.48901 1.10755 8.48901 1.41505C8.48901 2.05555 9.42951 2.20955 9.53101 4.00305V7.90006C9.53101 8.74556 9.38101 8.90006 9.04801 8.90006C8.15851 8.90006 5.99801 5.59455 4.70201 1.82805C4.45001 1.08205 4.19401 0.800049 3.533 0.800049H0.889501C0.127 0.800049 0 1.15855 0 1.54305C0 2.23505 0.889501 5.71956 4.14301 10.3316C6.30351 13.4816 9.37901 15.1746 12.1495 15.1746C13.8275 15.1746 14.0305 14.7901 14.0305 14.1496V11.7666C14.0305 10.9981 14.183 10.8701 14.717 10.8701C15.098 10.8701 15.7845 11.0746 17.335 12.5866C19.114 14.3801 19.419 15.2001 20.4105 15.2001H23.0285C23.791 15.2001 24.147 14.8156 23.9435 14.0726C23.715 13.3296 22.8505 12.2536 21.732 10.9726C21.122 10.2556 20.207 9.46106 19.9275 9.07656C19.5465 8.56406 19.648 8.35906 19.9275 7.89806C19.902 7.89806 23.105 3.33705 23.435 1.79805" fill="white"/>
</svg>
