<svg width="33" height="43" viewBox="0 0 33 43" fill="none" xmlns="http://www.w3.org/2000/svg">
<path d="M27.8442 10.9743C27.8442 8.86491 26.2927 7.16804 24.3755 7.16804C21.7786 7.04663 19.1302 6.99976 16.4236 6.99976H15.5799C12.8799 6.99976 10.2267 7.04663 7.62987 7.16851C5.71737 7.16851 4.16581 8.87475 4.16581 10.9841C4.04862 12.6524 3.99894 14.3212 4.00175 15.9899C3.99706 17.6587 4.05019 19.329 4.16112 21.0008C4.16112 23.1102 5.71269 24.8212 7.62519 24.8212C10.3533 24.9477 13.1517 25.004 15.9971 24.9993C18.8471 25.0087 21.6377 24.9493 24.3689 24.8212C26.2861 24.8212 27.8377 23.1102 27.8377 21.0008C27.9502 19.3274 28.0017 17.6587 27.997 15.9852C28.0077 14.3165 27.9567 12.6462 27.8442 10.9743ZM13.7049 20.5883V11.3774L20.5017 15.9805L13.7049 20.5883Z" fill="#6495ED"/>
<path d="M22.129 21C22.3311 21.0674 22.5481 21.11 22.7352 21.2088C23.2436 21.4782 23.5648 21.925 23.6498 22.5155C23.7094 22.9263 23.6966 23.3506 23.7009 23.7682C23.7073 24.3969 23.703 25.0255 23.703 25.6541C23.703 25.6946 23.703 25.735 23.703 25.7978C24.188 25.589 24.6772 25.5127 25.1664 25.708C25.6556 25.9056 25.9831 26.2918 26.1916 26.7632C26.417 26.6847 26.6319 26.5814 26.8552 26.5387C27.3997 26.4355 27.891 26.5724 28.3058 26.9698C28.4781 27.1337 28.6185 27.3223 28.7248 27.5423C28.7971 27.695 28.8184 27.6972 28.9673 27.6321C29.231 27.5154 29.4969 27.4053 29.7904 27.4188C30.3923 27.448 30.8667 27.7242 31.2049 28.2495C31.375 28.5144 31.4835 28.8086 31.4856 29.1363C31.4941 30.8875 31.5048 32.6387 31.5069 34.3877C31.5069 35.2925 31.4835 36.1973 31.4877 37.1021C31.4941 38.4065 31.0985 39.5672 30.3732 40.6045C29.7968 41.4307 29.0545 42.0503 28.1654 42.4724C27.6571 42.7126 27.1274 42.8653 26.5787 42.9529C26.4298 42.9775 26.2766 42.9865 26.1256 43C25.9278 43 25.7279 43 25.5301 43C25.411 42.9843 25.2919 42.9686 25.1749 42.9573C24.2858 42.863 23.452 42.5802 22.6587 42.1469C22.0695 41.8258 21.5782 41.3745 21.1123 40.8873C19.5022 39.2012 17.8921 37.5129 16.2862 35.8178C15.9544 35.4676 15.6396 35.0949 15.3227 34.7267C15.0271 34.3854 14.9569 33.9679 15.0228 33.5278C15.1377 32.7645 15.5694 32.2818 16.265 32.0617C16.5585 31.9674 16.8605 32.0034 17.1583 32.0573C17.5284 32.1224 17.8496 32.3244 18.1814 32.4951C18.8386 32.8296 19.4916 33.1753 20.1446 33.5166C20.1573 33.5233 20.1701 33.5278 20.1977 33.5413C20.1977 33.4874 20.1977 33.4447 20.1977 33.4021C20.1977 31.258 20.1956 29.1161 20.1999 26.972C20.202 25.6339 20.2148 24.2958 20.2233 22.9578C20.2254 22.6008 20.2637 22.2528 20.4487 21.9407C20.7486 21.4266 21.1591 21.0898 21.7419 21.0202C21.759 21.018 21.7738 21.0067 21.7909 21C21.9036 21 22.0163 21 22.129 21ZM21.0996 28.6042C21.0975 28.6042 21.0932 28.6042 21.0911 28.6042C21.0911 28.9073 21.0932 29.2104 21.0911 29.5113C21.0826 31.0896 21.0762 32.6679 21.0634 34.2462C21.0634 34.3361 21.0485 34.4371 21.0103 34.5157C20.8997 34.7402 20.6912 34.7896 20.4381 34.6616C19.5214 34.1946 18.6068 33.7231 17.6879 33.2629C17.4178 33.1282 17.1583 32.9463 16.8435 32.9306C16.5968 32.9171 16.3607 32.9328 16.1544 33.1125C15.9204 33.3145 15.7481 33.8601 16.0182 34.1654C16.1288 34.2912 16.2203 34.4348 16.333 34.5583C16.8797 35.1555 17.4263 35.7527 17.9814 36.3387C19.1917 37.6162 20.4062 38.8892 21.6186 40.1599C21.9121 40.4675 22.2205 40.7594 22.5651 41.0063C23.4775 41.6597 24.4794 42.0189 25.5833 42.0593C26.0618 42.0773 26.5383 42.0638 27.0041 41.9313C28.4568 41.5227 29.5118 40.5977 30.1754 39.1788C30.369 38.7679 30.5051 38.3301 30.5625 37.8789C30.6072 37.5219 30.6114 37.1559 30.6114 36.7945C30.6093 34.1946 30.6029 31.5948 30.5965 28.9949C30.5965 28.959 30.5965 28.9141 30.5795 28.8871C30.4987 28.7749 30.42 28.6581 30.3264 28.5593C30.1265 28.3505 29.8691 28.3438 29.6117 28.3663C29.2991 28.3932 28.9971 28.6761 28.9396 29.0016C28.9184 29.1251 28.9141 29.2553 28.9141 29.3811C28.9056 30.0726 28.9077 30.7641 28.8886 31.4556C28.8801 31.7609 28.8354 31.8687 28.6078 31.9607C28.3483 32.0662 28.0867 31.9001 28.0654 31.6082C28.0484 31.359 28.0314 31.1098 28.0272 30.8584C28.0144 29.9828 28.0038 29.1072 28.0038 28.2338C28.0038 28.0744 27.9655 27.9487 27.8783 27.8229C27.6443 27.4862 27.2572 27.3402 26.8871 27.4682C26.5702 27.5782 26.3149 27.8431 26.3192 28.3371C26.3213 28.7098 26.3128 29.0847 26.3086 29.4574C26.3 30.1422 26.2915 30.8247 26.2766 31.5094C26.2745 31.6419 26.2639 31.7856 26.1512 31.8754C26.0172 31.9832 25.8704 32.0326 25.6981 31.9585C25.5258 31.8844 25.4578 31.7474 25.4514 31.5678C25.4365 31.2019 25.4174 30.8359 25.4152 30.4699C25.4088 29.5045 25.411 28.5391 25.4067 27.5737C25.4067 27.4256 25.4025 27.2729 25.3684 27.1292C25.2621 26.6824 24.758 26.3973 24.3283 26.5365C24.0199 26.6375 23.8072 26.8463 23.737 27.1876C23.7115 27.3133 23.7115 27.448 23.7115 27.5782C23.7073 28.3708 23.7094 29.1655 23.7051 29.9581C23.703 30.4408 23.6988 30.9235 23.6796 31.4039C23.6732 31.5543 23.6371 31.7182 23.569 31.8485C23.4988 31.9832 23.2627 32.0258 23.1287 31.9697C22.9288 31.8889 22.8586 31.7878 22.8543 31.5701C22.8395 30.7618 22.8182 29.9558 22.8139 29.1476C22.8012 27.0035 22.7969 24.8616 22.7927 22.7175C22.7927 22.5761 22.7629 22.4616 22.6842 22.3471C22.4566 22.0103 22.1227 21.8621 21.7419 21.943C21.4378 22.0081 21.1506 22.3156 21.1315 22.6075C21.1187 22.8163 21.1102 23.0251 21.1081 23.2361C21.1017 23.8603 21.0996 24.4844 21.0996 25.1086C21.0996 26.2738 21.0996 27.439 21.0996 28.6042Z" fill="black"/>
<path d="M21.0987 28.6046C21.0987 27.4394 21.0987 26.2719 21.0987 25.1067C21.0987 24.4825 21.103 23.8584 21.1072 23.2342C21.1094 23.0255 21.1157 22.8144 21.1306 22.6056C21.1498 22.316 21.4369 22.0062 21.7411 21.9411C22.1197 21.8602 22.4557 22.0084 22.6833 22.3452C22.762 22.4597 22.7918 22.5742 22.7918 22.7156C22.796 24.8597 22.8024 27.0016 22.8131 29.1457C22.8173 29.9539 22.8386 30.7599 22.8535 31.5682C22.8577 31.7859 22.9279 31.887 23.1279 31.9678C23.2619 32.0217 23.5001 31.979 23.5681 31.8466C23.6362 31.7163 23.6724 31.5524 23.6787 31.402C23.6979 30.9193 23.7021 30.4366 23.7043 29.9562C23.7085 29.1636 23.7064 28.3689 23.7106 27.5763C23.7106 27.4461 23.7106 27.3114 23.7362 27.1857C23.8064 26.8467 24.0191 26.6356 24.3275 26.5346C24.7571 26.3954 25.2612 26.6783 25.3676 27.1273C25.4016 27.271 25.4037 27.4237 25.4058 27.5718C25.4101 28.5372 25.408 29.5026 25.4144 30.4681C25.4165 30.834 25.4356 31.2 25.4505 31.5659C25.459 31.7455 25.5271 31.8825 25.6972 31.9566C25.8695 32.0307 26.0163 31.9813 26.1503 31.8735C26.263 31.7837 26.2737 31.64 26.2758 31.5075C26.2907 30.825 26.2971 30.1403 26.3077 29.4555C26.3119 29.0828 26.3226 28.7079 26.3183 28.3352C26.3141 27.8413 26.5714 27.5763 26.8862 27.4663C27.2563 27.3383 27.6456 27.4865 27.8774 27.821C27.9646 27.9468 28.0029 28.0725 28.0029 28.2319C28.005 29.1075 28.0156 29.9831 28.0263 30.8565C28.0305 31.1057 28.0454 31.3571 28.0646 31.6063C28.0858 31.896 28.3475 32.0643 28.6069 31.9588C28.8345 31.8645 28.8792 31.759 28.8877 31.4537C28.9069 30.7622 28.9047 30.0707 28.9132 29.3792C28.9154 29.2534 28.9175 29.1232 28.9388 28.9997C28.9962 28.6764 29.2982 28.3913 29.6109 28.3644C29.8682 28.3419 30.1256 28.3486 30.3255 28.5574C30.4191 28.6562 30.4978 28.773 30.5787 28.8852C30.5978 28.9122 30.5957 28.9571 30.5957 28.993C30.6021 31.5929 30.6084 34.1927 30.6106 36.7926C30.6106 37.154 30.6063 37.52 30.5616 37.877C30.5042 38.3305 30.366 38.766 30.1745 39.1769C29.5088 40.5958 28.4559 41.5208 27.0032 41.9294C26.5374 42.0619 26.061 42.0754 25.5824 42.0574C24.4785 42.017 23.4767 41.6578 22.5642 41.0044C22.2196 40.7575 21.9112 40.4678 21.6177 40.158C20.4032 38.885 19.1887 37.6143 17.9806 36.3368C17.4254 35.7486 16.8788 35.1514 16.3322 34.5564C16.2194 34.4329 16.128 34.2893 16.0174 34.1635C15.7472 33.8582 15.9195 33.3149 16.1535 33.1106C16.3598 32.931 16.5959 32.9175 16.8426 32.9287C17.1574 32.9444 17.4169 33.1263 17.6871 33.261C18.6059 33.7212 19.5205 34.1927 20.4372 34.6597C20.6882 34.7877 20.8988 34.7383 21.0094 34.5138C21.0477 34.4352 21.0626 34.3364 21.0626 34.2444C21.0732 32.666 21.0817 31.0877 21.0902 29.5094C21.0923 29.2063 21.0902 28.9032 21.0902 28.6023C21.0923 28.6046 21.0966 28.6046 21.0987 28.6046Z" fill="white"/>
</svg>
